<svg xmlns="http://www.w3.org/2000/svg" xmlns:xlink="http://www.w3.org/1999/xlink" width="500" zoomAndPan="magnify" viewBox="0 0 375 374.999991" height="500" preserveAspectRatio="xMidYMid meet" version="1.0"><defs><g/></defs><g fill="rgb(21.958923%, 7.058716%, 0%)" fill-opacity="0.4"><g transform="translate(52.329234, 210.074695)"><g><path d="M 51.316406 -43.625 C 51.316406 -47.089844 50.199219 -49.003906 48.445312 -50.121094 C 46.652344 -51.195312 44.183594 -51.433594 41.59375 -51.433594 C 38.726562 -51.433594 37.132812 -51.234375 36.214844 -50.757812 C 35.257812 -50.238281 35.058594 -49.441406 35.058594 -48.207031 C 35.058594 -47.410156 35.179688 -46.535156 35.417969 -45.617188 C 35.617188 -44.703125 35.738281 -43.746094 35.738281 -42.789062 L 35.816406 -28.726562 L 19.640625 -48.207031 C 18.085938 -49.800781 16.851562 -50.558594 15.417969 -50.996094 C 13.945312 -51.433594 12.269531 -51.433594 9.878906 -51.433594 C 7.847656 -51.433594 6.652344 -51.117188 5.9375 -50.558594 C 5.21875 -50 4.941406 -49.164062 4.941406 -48.207031 C 4.941406 -47.410156 5.058594 -46.574219 5.257812 -45.699219 C 5.457031 -44.78125 5.617188 -43.90625 5.65625 -43.066406 L 5.65625 -7.011719 C 5.65625 -4.820312 6.492188 -2.867188 7.886719 -1.472656 C 9.28125 -0.0390625 11.195312 0.796875 13.425781 0.796875 C 15.617188 0.796875 17.53125 -0.0390625 18.882812 -1.433594 C 20.238281 -2.828125 21.035156 -4.78125 21.035156 -7.011719 C 21.035156 -9.523438 21.035156 -11.992188 21.074219 -14.503906 C 21.117188 -17.011719 21.117188 -19.480469 21.117188 -21.992188 L 37.886719 -1.753906 C 39.441406 0 41.515625 0.796875 43.585938 0.796875 C 45.976562 0.796875 47.929688 -0.199219 49.242188 -1.792969 C 50.558594 -3.386719 51.316406 -5.539062 51.316406 -7.886719 Z M 51.316406 -43.625 "/></g></g></g><g fill="rgb(21.958923%, 7.058716%, 0%)" fill-opacity="0.4"><g transform="translate(115.471283, 210.074695)"><g><path d="M -4.703125 5.65625 C -4.703125 7.886719 -3.863281 9.800781 -2.429688 11.195312 C -1.035156 12.628906 0.917969 13.464844 3.109375 13.464844 C 8.40625 13.464844 12.949219 11.59375 16.175781 8.085938 C 19.363281 4.621094 21.273438 -0.398438 21.273438 -6.613281 L 21.273438 -43.625 C 21.273438 -46.972656 19.878906 -48.925781 17.730469 -50.039062 C 15.578125 -51.15625 12.75 -51.433594 9.921875 -51.433594 C 7.96875 -51.433594 6.734375 -51.117188 6.015625 -50.558594 C 5.296875 -50 5.019531 -49.164062 5.019531 -48.207031 C 5.019531 -47.410156 5.140625 -46.652344 5.339844 -45.976562 C 5.539062 -45.257812 5.65625 -44.503906 5.65625 -43.707031 L 5.65625 -6.613281 C 5.65625 -3.90625 4.859375 -2.070312 3.109375 -2.070312 C 0.917969 -2.070312 -1.035156 -1.234375 -2.429688 0.160156 C -3.863281 1.59375 -4.703125 3.546875 -4.703125 5.65625 Z M -4.703125 5.65625 "/></g></g></g><g fill="rgb(21.958923%, 7.058716%, 0%)" fill-opacity="0.4"><g transform="translate(147.899357, 210.074695)"><g><path d="M 24.183594 -51.433594 C 22.789062 -51.433594 21.632812 -51.316406 20.757812 -51.117188 C 18.964844 -50.636719 17.929688 -49.921875 17.410156 -48.882812 C 16.890625 -47.847656 16.652344 -46.691406 16.414062 -45.539062 C 16.292969 -44.941406 16.09375 -44.382812 15.894531 -43.824219 L 1.953125 -9.800781 C 1.753906 -9.324219 1.632812 -8.84375 1.554688 -8.40625 C 1.117188 -6.136719 1.792969 -3.824219 3.226562 -2.113281 C 4.621094 -0.359375 6.734375 0.796875 9.28125 0.796875 C 12.667969 0.835938 15.21875 -1.234375 16.535156 -4.222656 L 17.53125 -6.414062 L 30.796875 -6.414062 L 31.792969 -4.222656 C 32.789062 -1.515625 35.101562 0.160156 37.609375 0.636719 C 40.121094 1.117188 42.789062 0.4375 44.703125 -1.59375 C 46.136719 -3.148438 46.890625 -4.980469 46.890625 -7.011719 C 46.851562 -7.929688 46.734375 -8.882812 46.375 -9.800781 L 31.59375 -45.699219 C 30.835938 -47.289062 29.960938 -48.726562 28.726562 -49.761719 C 27.488281 -50.796875 26.054688 -51.433594 24.183594 -51.433594 Z M 27.929688 -18.246094 L 20.359375 -18.246094 L 24.183594 -28.007812 Z M 27.929688 -18.246094 "/></g></g></g><g fill="rgb(21.958923%, 7.058716%, 0%)" fill-opacity="0.4"><g transform="translate(203.950502, 210.074695)"><g><path d="M 27.570312 -19.480469 C 28.007812 -18.964844 28.445312 -18.527344 28.882812 -18.167969 C 29.722656 -17.449219 30.476562 -17.050781 31.554688 -17.050781 C 33.507812 -17.050781 35.101562 -18.726562 37.210938 -21.273438 L 42.589844 -28.128906 L 42.589844 -7.011719 C 42.589844 -4.183594 43.746094 -2.230469 45.339844 -0.996094 C 46.890625 0.277344 48.804688 0.796875 50.238281 0.796875 C 52.429688 0.796875 54.34375 -0.078125 55.777344 -1.515625 C 57.171875 -2.910156 58.007812 -4.820312 58.007812 -7.011719 L 58.007812 -39.480469 C 58.007812 -40 58.007812 -40.675781 58.046875 -41.472656 C 58.085938 -42.269531 58.046875 -43.109375 57.96875 -44.023438 C 57.769531 -45.777344 57.332031 -47.648438 56.136719 -49.082031 C 54.941406 -50.476562 52.988281 -51.433594 49.960938 -51.433594 C 47.769531 -51.433594 46.414062 -51.15625 45.457031 -50.71875 C 44.503906 -50.238281 44.023438 -49.601562 43.585938 -48.925781 L 42.789062 -47.6875 C 42.390625 -47.050781 41.753906 -46.175781 40.835938 -45.058594 C 39.003906 -42.789062 36.054688 -39.363281 31.316406 -34.542969 L 18.40625 -48.765625 C 17.132812 -50.078125 16.136719 -50.757812 14.78125 -51.117188 C 13.425781 -51.433594 11.671875 -51.433594 9.003906 -51.433594 C 6.972656 -51.433594 5.777344 -51.117188 5.058594 -50.558594 C 4.34375 -50 4.0625 -49.164062 4.0625 -48.207031 C 4.0625 -47.332031 4.183594 -46.453125 4.421875 -45.617188 C 4.660156 -44.78125 4.78125 -43.90625 4.78125 -43.066406 C 4.859375 -37.050781 4.902344 -31.074219 4.859375 -25.101562 C 4.820312 -19.082031 4.78125 -13.066406 4.78125 -7.011719 C 4.78125 -4.820312 5.617188 -2.910156 7.011719 -1.515625 C 8.40625 -0.078125 10.320312 0.796875 12.550781 0.796875 C 14.78125 0.796875 16.691406 -0.078125 18.085938 -1.515625 C 19.480469 -2.910156 20.320312 -4.820312 20.320312 -7.011719 L 20.320312 -11.273438 C 20.277344 -12.628906 20.277344 -14.105469 20.277344 -15.65625 L 20.277344 -20.996094 C 20.238281 -22.988281 20.238281 -25.378906 20.238281 -28.128906 L 25.894531 -21.273438 Z M 27.570312 -19.480469 "/></g></g></g><g fill="rgb(21.958923%, 7.058716%, 0%)" fill-opacity="0.4"><g transform="translate(272.749327, 210.074695)"><g><path d="M 21.195312 -43.546875 C 20.996094 -46.890625 19.679688 -48.84375 17.648438 -50 C 15.617188 -51.117188 12.910156 -51.433594 9.878906 -51.433594 C 7.847656 -51.433594 6.652344 -51.117188 5.9375 -50.558594 C 5.21875 -50 4.941406 -49.164062 4.941406 -48.207031 C 4.941406 -47.410156 5.058594 -46.574219 5.257812 -45.699219 C 5.457031 -44.78125 5.617188 -43.90625 5.65625 -43.066406 L 5.65625 -7.011719 C 5.65625 -4.820312 6.492188 -2.910156 7.886719 -1.515625 C 9.28125 -0.078125 11.195312 0.796875 13.425781 0.796875 C 15.65625 0.796875 17.570312 -0.078125 18.964844 -1.515625 C 20.359375 -2.910156 21.195312 -4.820312 21.195312 -7.011719 Z M 21.195312 -43.546875 "/></g></g></g><g fill="rgb(21.958923%, 7.058716%, 0%)" fill-opacity="0.4"><g transform="translate(305.814771, 210.074695)"><g><path d="M 11.953125 -10.199219 C 14.0625 -10.199219 16.054688 -11.074219 17.488281 -12.511719 C 18.882812 -13.945312 19.761719 -15.894531 19.761719 -18.007812 L 19.761719 -47.371094 C 19.761719 -49.480469 18.925781 -51.472656 17.53125 -52.910156 C 16.09375 -54.304688 14.144531 -55.179688 11.953125 -55.179688 C 9.761719 -55.179688 7.808594 -54.304688 6.414062 -52.910156 C 4.980469 -51.472656 4.144531 -49.480469 4.144531 -47.371094 L 4.144531 -18.007812 C 4.144531 -15.894531 5.019531 -13.945312 6.453125 -12.511719 C 7.847656 -11.074219 9.761719 -10.199219 11.953125 -10.199219 Z M 19.761719 0.796875 C 19.761719 -1.394531 18.882812 -3.347656 17.488281 -4.703125 C 16.054688 -6.054688 14.0625 -6.851562 11.953125 -6.851562 C 9.761719 -6.851562 7.808594 -6.054688 6.414062 -4.703125 C 4.980469 -3.347656 4.144531 -1.394531 4.144531 0.796875 C 4.144531 2.988281 4.980469 4.859375 6.414062 6.214844 C 7.808594 7.570312 9.761719 8.445312 11.953125 8.445312 C 14.0625 8.445312 16.054688 7.570312 17.488281 6.214844 C 18.882812 4.859375 19.761719 2.988281 19.761719 0.796875 Z M 19.761719 0.796875 "/></g></g></g><g fill="rgb(100%, 89.019775%, 89.019775%)" fill-opacity="1"><g transform="translate(48.807568, 206.553036)"><g><path d="M 51.316406 -43.625 C 51.316406 -47.089844 50.199219 -49.003906 48.445312 -50.121094 C 46.652344 -51.195312 44.183594 -51.433594 41.59375 -51.433594 C 38.726562 -51.433594 37.132812 -51.234375 36.214844 -50.757812 C 35.257812 -50.238281 35.058594 -49.441406 35.058594 -48.207031 C 35.058594 -47.410156 35.179688 -46.535156 35.417969 -45.617188 C 35.617188 -44.703125 35.738281 -43.746094 35.738281 -42.789062 L 35.816406 -28.726562 L 19.640625 -48.207031 C 18.085938 -49.800781 16.851562 -50.558594 15.417969 -50.996094 C 13.945312 -51.433594 12.269531 -51.433594 9.878906 -51.433594 C 7.847656 -51.433594 6.652344 -51.117188 5.9375 -50.558594 C 5.21875 -50 4.941406 -49.164062 4.941406 -48.207031 C 4.941406 -47.410156 5.058594 -46.574219 5.257812 -45.699219 C 5.457031 -44.78125 5.617188 -43.90625 5.65625 -43.066406 L 5.65625 -7.011719 C 5.65625 -4.820312 6.492188 -2.867188 7.886719 -1.472656 C 9.28125 -0.0390625 11.195312 0.796875 13.425781 0.796875 C 15.617188 0.796875 17.53125 -0.0390625 18.882812 -1.433594 C 20.238281 -2.828125 21.035156 -4.78125 21.035156 -7.011719 C 21.035156 -9.523438 21.035156 -11.992188 21.074219 -14.503906 C 21.117188 -17.011719 21.117188 -19.480469 21.117188 -21.992188 L 37.886719 -1.753906 C 39.441406 0 41.515625 0.796875 43.585938 0.796875 C 45.976562 0.796875 47.929688 -0.199219 49.242188 -1.792969 C 50.558594 -3.386719 51.316406 -5.539062 51.316406 -7.886719 Z M 51.316406 -43.625 "/></g></g></g><g fill="rgb(100%, 89.019775%, 89.019775%)" fill-opacity="1"><g transform="translate(111.949617, 206.553036)"><g><path d="M -4.703125 5.65625 C -4.703125 7.886719 -3.863281 9.800781 -2.429688 11.195312 C -1.035156 12.628906 0.917969 13.464844 3.109375 13.464844 C 8.40625 13.464844 12.949219 11.59375 16.175781 8.085938 C 19.363281 4.621094 21.273438 -0.398438 21.273438 -6.613281 L 21.273438 -43.625 C 21.273438 -46.972656 19.878906 -48.925781 17.730469 -50.039062 C 15.578125 -51.15625 12.75 -51.433594 9.921875 -51.433594 C 7.96875 -51.433594 6.734375 -51.117188 6.015625 -50.558594 C 5.296875 -50 5.019531 -49.164062 5.019531 -48.207031 C 5.019531 -47.410156 5.140625 -46.652344 5.339844 -45.976562 C 5.539062 -45.257812 5.65625 -44.503906 5.65625 -43.707031 L 5.65625 -6.613281 C 5.65625 -3.90625 4.859375 -2.070312 3.109375 -2.070312 C 0.917969 -2.070312 -1.035156 -1.234375 -2.429688 0.160156 C -3.863281 1.59375 -4.703125 3.546875 -4.703125 5.65625 Z M -4.703125 5.65625 "/></g></g></g><g fill="rgb(100%, 89.019775%, 89.019775%)" fill-opacity="1"><g transform="translate(144.377691, 206.553036)"><g><path d="M 24.183594 -51.433594 C 22.789062 -51.433594 21.632812 -51.316406 20.757812 -51.117188 C 18.964844 -50.636719 17.929688 -49.921875 17.410156 -48.882812 C 16.890625 -47.847656 16.652344 -46.691406 16.414062 -45.539062 C 16.292969 -44.941406 16.09375 -44.382812 15.894531 -43.824219 L 1.953125 -9.800781 C 1.753906 -9.324219 1.632812 -8.84375 1.554688 -8.40625 C 1.117188 -6.136719 1.792969 -3.824219 3.226562 -2.113281 C 4.621094 -0.359375 6.734375 0.796875 9.28125 0.796875 C 12.667969 0.835938 15.21875 -1.234375 16.535156 -4.222656 L 17.53125 -6.414062 L 30.796875 -6.414062 L 31.792969 -4.222656 C 32.789062 -1.515625 35.101562 0.160156 37.609375 0.636719 C 40.121094 1.117188 42.789062 0.4375 44.703125 -1.59375 C 46.136719 -3.148438 46.890625 -4.980469 46.890625 -7.011719 C 46.851562 -7.929688 46.734375 -8.882812 46.375 -9.800781 L 31.59375 -45.699219 C 30.835938 -47.289062 29.960938 -48.726562 28.726562 -49.761719 C 27.488281 -50.796875 26.054688 -51.433594 24.183594 -51.433594 Z M 27.929688 -18.246094 L 20.359375 -18.246094 L 24.183594 -28.007812 Z M 27.929688 -18.246094 "/></g></g></g><g fill="rgb(100%, 89.019775%, 89.019775%)" fill-opacity="1"><g transform="translate(200.428836, 206.553036)"><g><path d="M 27.570312 -19.480469 C 28.007812 -18.964844 28.445312 -18.527344 28.882812 -18.167969 C 29.722656 -17.449219 30.476562 -17.050781 31.554688 -17.050781 C 33.507812 -17.050781 35.101562 -18.726562 37.210938 -21.273438 L 42.589844 -28.128906 L 42.589844 -7.011719 C 42.589844 -4.183594 43.746094 -2.230469 45.339844 -0.996094 C 46.890625 0.277344 48.804688 0.796875 50.238281 0.796875 C 52.429688 0.796875 54.34375 -0.078125 55.777344 -1.515625 C 57.171875 -2.910156 58.007812 -4.820312 58.007812 -7.011719 L 58.007812 -39.480469 C 58.007812 -40 58.007812 -40.675781 58.046875 -41.472656 C 58.085938 -42.269531 58.046875 -43.109375 57.96875 -44.023438 C 57.769531 -45.777344 57.332031 -47.648438 56.136719 -49.082031 C 54.941406 -50.476562 52.988281 -51.433594 49.960938 -51.433594 C 47.769531 -51.433594 46.414062 -51.15625 45.457031 -50.71875 C 44.503906 -50.238281 44.023438 -49.601562 43.585938 -48.925781 L 42.789062 -47.6875 C 42.390625 -47.050781 41.753906 -46.175781 40.835938 -45.058594 C 39.003906 -42.789062 36.054688 -39.363281 31.316406 -34.542969 L 18.40625 -48.765625 C 17.132812 -50.078125 16.136719 -50.757812 14.78125 -51.117188 C 13.425781 -51.433594 11.671875 -51.433594 9.003906 -51.433594 C 6.972656 -51.433594 5.777344 -51.117188 5.058594 -50.558594 C 4.34375 -50 4.0625 -49.164062 4.0625 -48.207031 C 4.0625 -47.332031 4.183594 -46.453125 4.421875 -45.617188 C 4.660156 -44.78125 4.78125 -43.90625 4.78125 -43.066406 C 4.859375 -37.050781 4.902344 -31.074219 4.859375 -25.101562 C 4.820312 -19.082031 4.78125 -13.066406 4.78125 -7.011719 C 4.78125 -4.820312 5.617188 -2.910156 7.011719 -1.515625 C 8.40625 -0.078125 10.320312 0.796875 12.550781 0.796875 C 14.78125 0.796875 16.691406 -0.078125 18.085938 -1.515625 C 19.480469 -2.910156 20.320312 -4.820312 20.320312 -7.011719 L 20.320312 -11.273438 C 20.277344 -12.628906 20.277344 -14.105469 20.277344 -15.65625 L 20.277344 -20.996094 C 20.238281 -22.988281 20.238281 -25.378906 20.238281 -28.128906 L 25.894531 -21.273438 Z M 27.570312 -19.480469 "/></g></g></g><g fill="rgb(100%, 89.019775%, 89.019775%)" fill-opacity="1"><g transform="translate(269.227661, 206.553036)"><g><path d="M 21.195312 -43.546875 C 20.996094 -46.890625 19.679688 -48.84375 17.648438 -50 C 15.617188 -51.117188 12.910156 -51.433594 9.878906 -51.433594 C 7.847656 -51.433594 6.652344 -51.117188 5.9375 -50.558594 C 5.21875 -50 4.941406 -49.164062 4.941406 -48.207031 C 4.941406 -47.410156 5.058594 -46.574219 5.257812 -45.699219 C 5.457031 -44.78125 5.617188 -43.90625 5.65625 -43.066406 L 5.65625 -7.011719 C 5.65625 -4.820312 6.492188 -2.910156 7.886719 -1.515625 C 9.28125 -0.078125 11.195312 0.796875 13.425781 0.796875 C 15.65625 0.796875 17.570312 -0.078125 18.964844 -1.515625 C 20.359375 -2.910156 21.195312 -4.820312 21.195312 -7.011719 Z M 21.195312 -43.546875 "/></g></g></g><g fill="rgb(100%, 89.019775%, 89.019775%)" fill-opacity="1"><g transform="translate(302.293105, 206.553036)"><g><path d="M 11.953125 -10.199219 C 14.0625 -10.199219 16.054688 -11.074219 17.488281 -12.511719 C 18.882812 -13.945312 19.761719 -15.894531 19.761719 -18.007812 L 19.761719 -47.371094 C 19.761719 -49.480469 18.925781 -51.472656 17.53125 -52.910156 C 16.09375 -54.304688 14.144531 -55.179688 11.953125 -55.179688 C 9.761719 -55.179688 7.808594 -54.304688 6.414062 -52.910156 C 4.980469 -51.472656 4.144531 -49.480469 4.144531 -47.371094 L 4.144531 -18.007812 C 4.144531 -15.894531 5.019531 -13.945312 6.453125 -12.511719 C 7.847656 -11.074219 9.761719 -10.199219 11.953125 -10.199219 Z M 19.761719 0.796875 C 19.761719 -1.394531 18.882812 -3.347656 17.488281 -4.703125 C 16.054688 -6.054688 14.0625 -6.851562 11.953125 -6.851562 C 9.761719 -6.851562 7.808594 -6.054688 6.414062 -4.703125 C 4.980469 -3.347656 4.144531 -1.394531 4.144531 0.796875 C 4.144531 2.988281 4.980469 4.859375 6.414062 6.214844 C 7.808594 7.570312 9.761719 8.445312 11.953125 8.445312 C 14.0625 8.445312 16.054688 7.570312 17.488281 6.214844 C 18.882812 4.859375 19.761719 2.988281 19.761719 0.796875 Z M 19.761719 0.796875 "/></g></g></g></svg>